:SAMPLES-PER-SECOND 24
:FULLY-SPECIFIED
:DEGREES
75
root  0.409148 40.1765 23.4935 4.52097 -67.4787 1.91565
RightUpLeg  -8.10646 4.73577 -10.0227
RightLeg  25.7094 -5.22735 -2.95374
RightFoot  -8.07765 -0.322825 9.60113
RightToes  -2.08645e-008 3.77894e-005 6.81332e-007
Spine  -5.76047 1.41282 0.417451
Spine1  11.3714 1.58222 -0.3222
HEad  -33.0372 44.4138 -17.0444
LeftShoulder1  7.2698 -12.9716 -38.0201
LeftArm  -7.2536 27.0136 -35.1987
LeftForeArm  165.522 -70.627 -151.887
LeftHand  -0.371768 -1.52739 6.4075
RightShoulder  4.26051 6.93274 34.9226
RightArm  8.35558 -31.7821 31.9201
RightForeArm  126.687 79.2031 117.028
RightHand  -0.68694 6.79708 -6.88079
LeftUpLeg  -12.5356 -3.09311 13.7686
LeftLeg  20.2986 8.2534 3.6994
LeftFoot  6.43954 2.82286 -18.2442
LeftToes  1.24767e-006 1.47042e-008 1.32732e-009
76
root  0.276474 40.95 23.8544 6.10532 -67.3427 1.01976
RightUpLeg  -8.12797 2.6011 -9.54862
RightLeg  23.1565 -5.99327 -3.02285
RightFoot  -3.54726 -0.613811 8.52246
RightToes  -2.08645e-008 3.77894e-005 6.81332e-007
Spine  -7.02743 1.39898 0.2634
Spine1  10.1783 1.46855 0.0312544
HEad  -29.6602 45.0663 -15.772
LeftShoulder1  7.18884 -12.9501 -37.6016
LeftArm  -4.1877 29.7295 -34.2426
LeftForeArm  165.108 -68.692 -154.461
LeftHand  -0.307882 -1.91822 5.07884
RightShoulder  4.41901 7.11641 35.6963
RightArm  11.4331 -34.1583 30.2283
RightForeArm  137.488 78.3803 125.356
RightHand  -0.335874 7.99378 -3.29102
LeftUpLeg  -11.7426 0.831405 13.3502
LeftLeg  16.1733 5.07509 2.15704
LeftFoot  12.0795 2.94275 -14.4549
LeftToes  1.24767e-006 1.47042e-008 1.32732e-009
77
root  0.263564 41.0071 24.1224 6.98927 -66.5297 0.37265
RightUpLeg  -7.62051 2.10313 -8.94466
RightLeg  21.1134 -2.82862 -1.43152
RightFoot  -5.61932 -0.55864 10.5004
RightToes  -2.08645e-008 3.77894e-005 6.81332e-007
Spine  -6.68315 1.21623 -0.0301292
Spine1  8.72375 1.23325 0.011178
HEad  -29.8002 44.3457 -16.4972
LeftShoulder1  6.96899 -12.7738 -36.7528
LeftArm  -0.418594 29.7101 -32.1006
LeftForeArm  167.808 -66.6363 -157.123
LeftHand  -0.220437 -2.24714 3.54778
RightShoulder  4.3669 7.13878 35.1296
RightArm  14.8261 -34.8398 28.2719
RightForeArm  147.293 77.0966 133.495
RightHand  -0.177379 9.00751 -1.82108
LeftUpLeg  -11.916 -0.836517 13.0103
LeftLeg  15.3871 3.46444 1.88808
LeftFoot  10.8107 2.69732 -14.0379
LeftToes  1.24767e-006 1.47042e-008 1.32732e-009
78
root  0.354862 40.453 24.3541 6.66647 -65.4023 0.381927
RightUpLeg  -7.22299 4.00287 -8.46321
RightLeg  21.3452 0.550289 0.0233912
RightFoot  -9.93364 -0.203487 11.0208
RightToes  -2.08645e-008 3.77894e-005 6.81332e-007
Spine  -4.98583 1.20964 -0.340688
Spine1  7.31415 1.23543 -0.131226
HEad  -31.3957 42.2877 -17.7671
LeftShoulder1  6.5092 -12.3409 -35.0609
LeftArm  3.2201 26.6268 -30.9478
LeftForeArm  169.114 -65.5201 -158.383
LeftHand  -0.146812 -2.436 2.38208
RightShoulder  4.11774 6.97502 33.4083
RightArm  18.0782 -34.1704 26.7738
RightForeArm  152.898 75.426 140.074
RightHand  -0.0377899 8.44625 -0.700502
LeftUpLeg  -12.4445 -5.31088 12.8169
LeftLeg  17.4256 4.69107 2.14467
LeftFoot  4.30003 2.17391 -15.9328
LeftToes  1.24767e-006 1.47042e-008 1.32732e-009
79
root  0.504683 39.4727 24.5851 5.96638 -64.8329 0.745758
RightUpLeg  -7.60663 6.28608 -8.06237
RightLeg  24.2064 -1.56374 -1.00512
RightFoot  -15.4443 0.186014 8.19623
RightToes  -2.08645e-008 3.77894e-005 6.81332e-007
Spine  -3.05346 1.74952 0.00875166
Spine1  6.14854 1.97986 -0.953951
HEad  -32.8589 39.7255 -18.1503
LeftShoulder1  6.42796 -12.2799 -34.7101
LeftArm  5.95016 20.0034 -28.2979
LeftForeArm  166.903 -66.7863 -156.855
LeftHand  -0.189512 -2.78465 2.90299
RightShoulder  3.9914 6.86262 32.6171
RightArm  19.7312 -31.4226 24.8687
RightForeArm  150.208 75.4606 139.431
RightHand  -0.212178 7.33973 -2.27912
LeftUpLeg  -13.2775 -6.30012 12.2397
LeftLeg  21.1343 5.34505 2.59615
LeftFoot  -4.11844 1.0802 -16.496
LeftToes  1.24767e-006 1.47042e-008 1.32732e-009
80
root  0.701174 38.5297 24.8866 5.729 -63.7792 0.616226
RightUpLeg  -7.72422 6.76724 -7.81049
RightLeg  27.0829 -5.66636 -3.36435
RightFoot  -20.7564 0.400818 6.50577
RightToes  -2.08645e-008 3.77894e-005 6.81332e-007
Spine  -2.21068 2.00352 1.89996
Spine1  6.85006 2.70493 -3.16246
HEad  -34.9214 37.4839 -18.3105
LeftShoulder1  6.82158 -12.6495 -36.1814
LeftArm  7.00676 11.3364 -24.9689
LeftForeArm  161.907 -71.4226 -149.976
LeftHand  -0.364866 -3.05528 5.24726
RightShoulder  3.92799 6.76991 32.3458
RightArm  18.0424 -26.8979 24.8654
RightForeArm  133.002 78.9485 120.207
RightHand  -0.375092 8.14148 -3.59932
LeftUpLeg  -14.6457 -6.93551 11.6108
LeftLeg  25.1528 6.10754 3.46479
LeftFoot  -11.1748 0.0934928 -14.7577
LeftToes  1.24767e-006 1.47042e-008 1.32732e-009
81
root  0.855734 38.2211 25.2685 5.76614 -61.7536 0.0868378
RightUpLeg  -7.04367 6.27808 -7.71513
RightLeg  28.2087 -7.14698 -4.36399
RightFoot  -22.4193 0.595738 7.66321
RightToes  -2.08645e-008 3.77894e-005 6.81332e-007
Spine  -2.04954 1.75998 3.28089
Spine1  8.1591 2.6625 -4.15018
HEad  -36.4569 35.8244 -18.5382
LeftShoulder1  7.33219 -13.1301 -37.9714
LeftArm  6.74445 7.78706 -24.4829
LeftForeArm  154.171 -75.8256 -139.142
LeftHand  -0.474237 -2.99197 6.80599
RightShoulder  3.93429 6.74117 32.5159
RightArm  14.6998 -24.9164 25.4167
RightForeArm  104.973 80.5943 89.9207
RightHand  -0.631456 8.49497 -5.63794
LeftUpLeg  -15.5987 -9.31159 11.0712
LeftLeg  27.1931 7.14493 4.31068
LeftFoot  -13.603 -0.183123 -13.2769
LeftToes  1.24767e-006 1.47042e-008 1.32732e-009
82
root  0.832165 38.7043 25.7152 5.69743 -60.3709 0.163025
RightUpLeg  -6.69762 6.03067 -8.05014
RightLeg  28.1644 -7.44742 -4.53043
RightFoot  -18.862 0.517335 9.80072
RightToes  -2.08645e-008 3.77894e-005 6.81332e-007
Spine  -2.57732 1.74816 2.73629
Spine1  8.66354 2.34732 -2.82019
HEad  -36.0497 35.2994 -18.6089
LeftShoulder1  7.43353 -13.2279 -38.3085
LeftArm  5.67592 13.2979 -27.7808
LeftForeArm  152.96 -75.728 -139.245
LeftHand  -0.467676 -2.73425 6.90816
RightShoulder  3.9335 6.70263 32.654
RightArm  12.4423 -28.1985 25.5073
RightForeArm  108.679 80.4007 96.6239
RightHand  -0.734231 7.26475 -7.07356
LeftUpLeg  -15.0301 -9.85828 10.4071
LeftLeg  25.5335 6.53676 3.73114
LeftFoot  -10.8396 0.122473 -13.1606
LeftToes  1.24767e-006 1.47042e-008 1.32732e-009
83
root  0.701555 39.6114 26.1566 6.166 -59.628 0.530136
RightUpLeg  -7.50866 4.56675 -8.49596
RightLeg  27.744 -8.20784 -4.88427
RightFoot  -11.7475 -0.0335239 9.46794
RightToes  -2.08645e-008 3.77894e-005 6.81332e-007
Spine  -4.01166 1.63643 2.27017
Spine1  8.46616 2.02367 -1.83054
HEad  -33.7984 36.3577 -17.7386
LeftShoulder1  7.21144 -12.9835 -37.6475
LeftArm  4.62848 22.8506 -30.8269
LeftForeArm  156.722 -72.4037 -147.632
LeftHand  -0.424597 -2.46871 6.48648
RightShoulder  3.98714 6.74333 33.0243
RightArm  12.2692 -32.9364 25.4661
RightForeArm  128.363 78.9623 119.26
RightHand  -0.644606 7.18181 -6.28829
LeftUpLeg  -13.7607 -7.40598 9.96819
LeftLeg  20.9569 3.44362 1.78396
LeftFoot  -5.23995 0.750454 -13.4369
LeftToes  1.24767e-006 1.47042e-008 1.32732e-009
84
root  0.560918 40.4096 26.504 6.50056 -59.0145 1.02531
RightUpLeg  -8.06208 1.32975 -8.4573
RightLeg  26.5437 -9.2715 -5.22042
RightFoot  -6.55101 -0.304606 6.16334
RightToes  -2.08645e-008 3.77894e-005 6.81332e-007
Spine  -5.63807 1.52488 2.01481
Spine1  8.48128 1.88912 -1.72958
HEad  -30.8734 37.5661 -16.0509
LeftShoulder1  7.10079 -12.8685 -37.2923
LeftArm  4.05955 30.675 -31.1569
LeftForeArm  160.122 -69.571 -152.686
LeftHand  -0.323662 -2.82369 4.80819
RightShoulder  4.06871 6.82888 33.4905
RightArm  12.6394 -35.9864 25.3809
RightForeArm  140.637 77.4093 130.697
RightHand  -0.662025 7.87309 -6.15855
LeftUpLeg  -12.325 -4.1732 9.29515
LeftLeg  16.1236 -0.258293 0.514332
LeftFoot  0.165309 1.37467 -13.6054
LeftToes  1.24767e-006 1.47042e-008 1.32732e-009
85
root  0.457211 40.7758 26.7235 6.07829 -58.3293 1.48221
RightUpLeg  -7.0846 -2.96023 -7.81955
RightLeg  23.9728 -9.64448 -4.87041
RightFoot  -7.61878 -0.229084 5.33149
RightToes  -2.08645e-008 3.77894e-005 6.81332e-007
Spine  -6.45619 1.45846 1.85139
Spine1  9.15948 1.93954 -2.29054
HEad  -29.5833 37.8515 -14.9269
LeftShoulder1  6.86466 -12.7114 -36.2846
LeftArm  3.55684 35.3731 -31.025
LeftForeArm  162.865 -68.4291 -154.517
LeftHand  -0.183331 -3.12896 2.73322
RightShoulder  4.13487 6.89689 33.8667
RightArm  13.4681 -36.7894 24.9927
RightForeArm  147.277 76.0907 136.94
RightHand  -0.529212 7.75584 -5.03064
LeftUpLeg  -10.8762 -1.95802 8.25948
LeftLeg  13.1846 -2.45826 0.660646
LeftFoot  3.06618 1.65955 -13.2386
LeftToes  1.24767e-006 1.47042e-008 1.32732e-009
86
root  0.39948 40.7066 26.8165 5.67122 -58.2396 1.55539
RightUpLeg  -6.23291 -7.40838 -6.63248
RightLeg  20.8975 -7.65082 -3.42537
RightFoot  -11.109 -0.0920858 8.13739
RightToes  -2.08645e-008 3.77894e-005 6.81332e-007
Spine  -6.62276 1.68393 1.43185
Spine1  10.1734 2.14119 -2.15695
HEad  -30.2027 37.4824 -15.4047
LeftShoulder1  6.7046 -12.5986 -35.6049
LeftArm  3.4947 36.7018 -30.3272
LeftForeArm  160.216 -69.0429 -153.396
LeftHand  -0.143779 -3.04522 2.21182
RightShoulder  4.11269 6.8631 33.7832
RightArm  15.0035 -34.9159 24.3385
RightForeArm  148.974 75.5222 139.023
RightHand  -0.36319 7.54886 -3.61681
LeftUpLeg  -9.88018 -0.839858 7.82429
LeftLeg  12.4274 -2.83014 0.86425
LeftFoot  2.29322 1.49897 -12.616
LeftToes  1.24767e-006 1.47042e-008 1.32732e-009
87
root  0.376461 40.3191 26.806 4.92076 -58.7362 2.28638
RightUpLeg  -6.84173 -10.9273 -5.14866
RightLeg  19.4032 -6.69704 -2.81675
RightFoot  -12.5303 -0.0111372 7.22691
RightToes  -2.08645e-008 3.77894e-005 6.81332e-007
Spine  -6.56439 1.94352 0.799163
Spine1  10.9189 2.41687 -1.85561
HEad  -30.9249 37.2076 -16.2174
LeftShoulder1  6.81442 -12.6695 -36.0881
LeftArm  4.02625 34.8864 -27.5172
LeftForeArm  152.772 -71.4572 -148.707
LeftHand  -0.19067 -3.0431 2.85755
RightShoulder  4.09646 6.85253 33.6677
RightArm  15.7295 -30.3569 24.4218
RightForeArm  141.516 77.6245 129.824
RightHand  -0.379336 7.75883 -3.7126
LeftUpLeg  -9.70061 -0.787613 7.56388
LeftLeg  13.2778 -2.33687 0.682104
LeftFoot  -1.17779 1.10186 -12.2775
LeftToes  1.24767e-006 1.47042e-008 1.32732e-009
88
root  0.37205 39.6896 26.6726 3.78624 -59.465 3.42809
RightUpLeg  -8.05747 -10.7207 -3.77624
RightLeg  20.538 -10.9344 -4.72137
RightFoot  -14.5648 -0.0503891 2.14335
RightToes  -2.08645e-008 3.77894e-005 6.81332e-007
Spine  -6.04832 2.19831 0.889774
Spine1  11.365 2.96301 -2.5177
HEad  -31.4174 37.0033 -16.5262
LeftShoulder1  7.21681 -13.0452 -37.5194
LeftArm  4.88279 30.4305 -22.6484
LeftForeArm  145.226 -74.5076 -141.057
LeftHand  -0.299793 -2.83814 4.45841
RightShoulder  4.13986 6.91735 33.8359
RightArm  14.7848 -25.3684 25.8444
RightForeArm  116.895 80.2634 103.151
RightHand  -0.409467 8.11574 -3.88545
LeftUpLeg  -9.96079 -1.72036 7.29654
LeftLeg  15.1288 -0.473229 0.631497
LeftFoot  -5.8407 0.584257 -11.3223
LeftToes  1.24767e-006 1.47042e-008 1.32732e-009
89
root  0.372917 39.0492 26.5122 2.27161 -61.1653 3.76736
RightUpLeg  -8.32813 -7.26578 -3.37212
RightLeg  23.8832 -14.3846 -7.08707
RightFoot  -18.7496 -0.0358004 1.3433
RightToes  -2.08645e-008 3.77894e-005 6.81332e-007
Spine  -3.94227 2.64854 3.84324
Spine1  11.6821 4.36749 -6.07978
HEad  -32.6814 36.7583 -16.8172
LeftShoulder1  7.57443 -13.3616 -38.7708
LeftArm  5.31495 24.3985 -18.4496
LeftForeArm  139.516 -76.7607 -132.936
LeftHand  -0.455878 -2.21399 7.16759
RightShoulder  4.23151 6.99182 34.4228
RightArm  12.9491 -22.4104 27.5112
RightForeArm  94.2991 80.4154 80.217
RightHand  -0.472977 7.91762 -4.48518
LeftUpLeg  -9.19819 -2.06504 7.2545
LeftLeg  17.4991 2.45008 1.24539
LeftFoot  -10.7113 0.122824 -10.0968
LeftToes  1.24767e-006 1.47042e-008 1.32732e-009
